# xmcd CD database file
#
# Track frame offsets:
#	150
#	18080
#	35508
#	50453
#	61577
#	72058
#	84354
#	97398
#	112575
#	130613
#
# Disc length: 1954 seconds
#
# Revision: 0
# Processed by: cddbd v1.4PL0 Copyright (c) Steve Scherf et al.
# Submitted via: CDex 1.40Release
#
DISCID=7007a00a
DTITLE=Snörurnar - Eitt augnablik
DYEAR=1997
DGENRE=Country
TTITLE0=Snörurnar - Eitt augnablik
TTITLE1=Snörurnar - Sjáðu sól
TTITLE2=Snörurnar - Leiðarljós
TTITLE3=Snörurnar - Segðu ekki nei
TTITLE4=Snörurnar - Hann verður minn
TTITLE5=Snörurnar - Bara fara heim
TTITLE6=Snörurnar - S.O.S. ást í neyð
TTITLE7=Snörurnar - Fyrir utan gluggann minn
TTITLE8=Snörurnar - Í fyrsta sinn
TTITLE9=Snörurnar - Í bljúgri bæn
EXTD=YEAR: 1997 ID3G: 2
EXTT0=
EXTT1=
EXTT2=
EXTT3=
EXTT4=
EXTT5=
EXTT6=
EXTT7=
EXTT8=
EXTT9=
PLAYORDER=
